<svg xmlns="http://www.w3.org/2000/svg" width="48" height="48"><path d="M29.172 32L32 29.172l12 12L41.172 44zm0 0" fill="#616161"/><path d="M36 20c0 8.836-7.164 16-16 16S4 28.836 4 20 11.164 4 20 4s16 7.164 16 16" fill="#616161"/><path d="M32.477 35.309l2.828-2.829L44 41.172 41.168 44zm0 0" fill="#37474f"/><path d="M7 20c0-7.18 5.82-13 13-13s13 5.82 13 13-5.82 13-13 13S7 27.18 7 20" fill="#64b5f6"/><path d="M15 20a1.999 1.999 0 1 1-4 0 1.999 1.999 0 1 1 4 0zm0 0M22 20a1.999 1.999 0 1 1-4 0 1.999 1.999 0 1 1 4 0zm0 0M29 20a1.999 1.999 0 1 1-4 0 1.999 1.999 0 1 1 4 0zm0 0" fill="#e3f2fd"/></svg>