<svg xmlns="http://www.w3.org/2000/svg" width="48" height="48"><path d="M28 39c0 2.21-1.79 4-4 4s-4-1.79-4-4 1.79-4 4-4 4 1.79 4 4zm0 0M26 11a1.999 1.999 0 1 1-4 0V7a1.999 1.999 0 1 1 4 0zm0 0" fill="#db8509"/><path d="M27.887 39.91c.066-.293.113-.597.113-.91 0-.383-.07-.746-.172-1.098a74.753 74.753 0 0 1-7.656 0A3.932 3.932 0 0 0 20 39c0 .313.047.617.113.91 1.473.07 2.813.09 3.887.09 1.074 0 2.414-.02 3.887-.09zm0 0" fill="#bc6f0a"/><path d="M41 34c0 2.21-7.059 4-17 4-9.941 0-17-1.79-17-4 0-.14.031-.281.09-.422.16-.45.531-1.027 1.039-1.7.36-.487.793-1.019 1.25-1.589C11.739 27.461 15 23.922 15 22v-5c0-4.969 4.031-9 9-9s9 4.031 9 9v5c0 1.922 3.262 5.46 5.621 8.29.457.57.89 1.1 1.25 1.589.508.672.879 1.25 1.04 1.7.058.14.089.28.089.421zm0 0" fill="#ffc107"/><path d="M39.871 31.879C36.27 33.98 31.06 35 24 35c-7.059 0-12.27-1.02-15.871-3.121.36-.488.793-1.02 1.25-1.59C14.28 33 21.53 33 24 33c2.469 0 9.719 0 14.621-2.71.457.57.89 1.1 1.25 1.589zm0 0" fill="#ffe082"/><path d="M38.012 11.64l-1.672 1.282c.43 1.277.66 2.656.66 4.078 0 1.422-.23 2.8-.66 4.078l1.672 1.281C38.648 20.7 39 18.891 39 17c0-1.89-.352-3.7-.988-5.36zm0 0M11.66 12.922L9.988 11.64A14.943 14.943 0 0 0 9 17c0 1.89.352 3.7.988 5.36l1.672-1.282A12.801 12.801 0 0 1 11 17c0-1.422.23-2.8.66-4.078zm0 0M42.91 7.89L41.29 9.13A18.814 18.814 0 0 1 43 17c0 2.809-.61 5.469-1.71 7.871l1.62 1.238A20.786 20.786 0 0 0 45 17c0-3.262-.75-6.352-2.09-9.11zm0 0M6.71 9.129L5.09 7.89A20.786 20.786 0 0 0 3 17c0 3.262.75 6.352 2.09 9.11l1.62-1.239A18.814 18.814 0 0 1 5 17c0-2.809.61-5.469 1.71-7.871zm0 0" fill="#ffab00"/></svg>