<svg xmlns="http://www.w3.org/2000/svg" width="48" height="48"><path d="M11.313 39.465a20.015 20.015 0 0 0 9.226 4.238l.285-4.023a15.946 15.946 0 0 1-6.668-3.059zm0 0" fill="#aed581"/><path d="M8.086 26H4.05c.398 4.016 2.008 7.676 4.433 10.637l2.84-2.84A15.972 15.972 0 0 1 8.086 26zm0 0" fill="#9ccc65"/><path d="M33.66 36.68l2.024 3.468a20.203 20.203 0 0 0 4.265-4.214l-3.46-2.075a16.105 16.105 0 0 1-2.829 2.82zm0 0" fill="#dcedc8"/><path d="M24.813 39.96l-.286 4.013a19.865 19.865 0 0 0 7.703-1.809l-2.02-3.46a16.05 16.05 0 0 1-5.398 1.257zm0 0" fill="#c5e1a5"/><path d="M39.813 22h4.035C42.84 11.906 34.3 4 23.949 4 13.598 4 5.06 11.906 4.051 22h4.035c.988-7.879 7.719-14 15.863-14 8.145 0 14.871 6.121 15.863 14zm0 0" fill="#8bc34a"/></svg>