<svg xmlns="http://www.w3.org/2000/svg" width="48" height="48"><path d="M29 15c8.285 0 15 6.043 15 13.5 0 3.54-1.523 6.746-4 9.156.004.32 0 3.344 4 5.344 0 0-1 1-3.5 1-5.5 0-7.5-2.5-7.5-2.5-1.273.316-2.613.5-4 .5-8.285 0-15-6.043-15-13.5S20.715 15 29 15zm0 0" fill="#2196f3"/><path d="M21 23h16v2H21zm0 0M21 28h16v2H21zm0 0M23 33h10v2H23zm0 0" fill="#bbdefb"/><path d="M34.875 23A14.225 14.225 0 0 0 36 17.5c0-.324-.031-.64-.055-.96A16.31 16.31 0 0 0 29 15c-8.285 0-15 6.043-15 13.5 0 1.633.34 3.191.93 4.64.238-.152.465-.308.66-.464C16.73 32.89 17.87 33 19 33c3.746 0 7.21-1.117 10.02-3H29v-2h2.477a15.73 15.73 0 0 0 2.39-3H33v-2zm0 0" fill="#1e88e5"/><path d="M21 25h12.867c.39-.64.719-1.309 1.008-2H21zm0 0M21 30h8.012a16.948 16.948 0 0 0 2.457-2H21zm0 0" fill="#64b5f6"/><path d="M19 4C10.715 4 4 10.043 4 17.5c0 3.54 1.523 6.746 4 9.156C7.996 26.976 8 30 4 32c0 0 1 1 3.5 1 5.5 0 7.5-2.5 7.5-2.5 1.273.316 2.613.5 4 .5 8.285 0 15-6.043 15-13.5S27.285 4 19 4zm0 0" fill="#ffb300"/><path d="M11 12h16v2H11zm0 0M11 17h16v2H11zm0 0M11 22h12v2H11zm0 0" fill="#ffecb3"/></svg>