<svg xmlns="http://www.w3.org/2000/svg" width="48" height="48"><path d="M32 40a5 5 0 1 1-10 0 5 5 0 0 1 10 0zm0 0" fill="#ffcdd2"/><path d="M36 39.5a3.5 3.5 0 1 1-7 0 3.5 3.5 0 1 1 7 0zm0 0M26 40a5 5 0 1 1-10 0 5 5 0 0 1 10 0zm0 0" fill="#ffcdd2"/><path d="M19 39.5a3.5 3.5 0 1 1-7 0 3.5 3.5 0 1 1 7 0zm0 0" fill="#ffcdd2"/><path d="M20 35c0-2.21 1.79-4 4-4s4 1.79 4 4-4 7-4 7-4-4.79-4-7zm0 0" fill="#ff3d00"/><path d="M22 35a1.999 1.999 0 1 1 4 0c0 1.105-2 3-2 3s-2-1.895-2-3zm0 0" fill="#ffeb3b"/><path d="M18 13v19h12V13c0-1.582-1.664-4.543-3.238-6.996h-5.52C19.664 8.457 18 11.422 18 13zm0 0" fill="#d1c4e9"/><path d="M35 32l-5-1.996v-12L35 25zm0 0M13 32l5-1.996v-12L13 25zm0 0M21.242 6h5.52C25.344 3.797 24 2 24 2s-1.344 1.797-2.758 4zm0 0M30 32l-2 2h-8l-2-2zm0 0" fill="#7e57c2"/><path d="M26 14.004c0 1.101-.895 2-2 2s-2-.899-2-2c0-1.106.895-2 2-2s2 .894 2 2zm0 0M26 20a1.999 1.999 0 1 1-4 0 1.999 1.999 0 1 1 4 0zm0 0M26 26a1.999 1.999 0 1 1-4 0 1.999 1.999 0 1 1 4 0zm0 0" fill="#311b92"/></svg>