<svg xmlns="http://www.w3.org/2000/svg" width="48" height="48"><path d="M39 6H9a3 3 0 0 0-3 3v33l8.555-8H39a3 3 0 0 0 3-3V9a3 3 0 0 0-3-3zm0 0" fill="#2196f3"/><path d="M22.688 23.46c0-1.132.136-2.03.414-2.698.277-.672.785-1.332 1.52-1.98.737-.65 1.23-1.18 1.472-1.587.246-.41.367-.84.367-1.293 0-1.363-.637-2.047-1.906-2.047-.602 0-1.082.184-1.446.551-.363.367-.55.875-.566 1.524H19c.016-1.543.52-2.75 1.508-3.621S22.844 11 24.555 11c1.726 0 3.062.414 4.02 1.242.948.828 1.425 1.992 1.425 3.504 0 .688-.152 1.332-.465 1.941-.308.614-.851 1.29-1.625 2.032l-.984.93c-.621.59-.977 1.28-1.067 2.074l-.047.738zm-.356 3.708c0-.54.188-.98.559-1.332.37-.352.843-.527 1.422-.527.578 0 1.05.175 1.421.527.371.352.555.793.555 1.332 0 .527-.18.969-.543 1.312-.363.344-.84.52-1.433.52-.598 0-1.075-.176-1.438-.52-.36-.343-.543-.785-.543-1.312zm0 0" fill="#e3f2fd"/></svg>