<svg xmlns="http://www.w3.org/2000/svg" width="48" height="48"><path d="M5 39V15h38v24c0 2.21-1.79 4-4 4H9c-2.21 0-4-1.79-4-4" fill="#cfd8dc"/><path d="M43 11v6H5v-6c0-2.21 1.79-4 4-4h30c2.21 0 4 1.79 4 4" fill="#f44336"/><path d="M36 11a3 3 0 1 1-6.002-.002A3 3 0 0 1 36 11M18 11a3 3 0 1 1-6.002-.002A3 3 0 0 1 18 11" fill="#b71c1c"/><path d="M33 4c-1.105 0-2 .895-2 2v5a1.999 1.999 0 1 0 4 0V6c0-1.105-.895-2-2-2M15 4c-1.105 0-2 .895-2 2v5a1.999 1.999 0 1 0 4 0V6c0-1.105-.895-2-2-2" fill="#b0bec5"/><path d="M31 32.07H16.86l7.07 7.07zm0 0M16.86 28H31l-7.07-7zm0 0" fill="#78909c"/></svg>