<svg xmlns="http://www.w3.org/2000/svg" width="48" height="48"><path d="M6 10c0-2.21 1.79-4 4-4h28c2.21 0 4 1.79 4 4v28c0 2.21-1.79 4-4 4H10c-2.21 0-4-1.79-4-4zm0 0" fill="#673ab7"/><path d="M21.66 9a9.071 9.071 0 0 1 3.031 6.77c0 5.023-4.078 9.101-9.101 9.101a9.078 9.078 0 0 1-6.77-3.031c1.442 3.707 5.035 6.34 9.25 6.34 5.485 0 9.93-4.446 9.93-9.93 0-4.215-2.633-7.813-6.34-9.25zm0 0M34.512 19l-.992-4 .992-4 1.008 4zm0 0" fill="#fff59d"/><path d="M31.16 17.172l2.817-3.012 3.89-1.348-2.8 3.028zm0 0" fill="#fff59d"/><path d="M31.05 13.012l3.966 1.12L38 16.973l-3.977-1.105zm0 0" fill="#fff59d"/><path d="M34 27c0 3.313-2.688 6-6 6-3.313 0-6-2.688-6-6 0-3.313 2.688-6 6-6 3.313 0 6 2.688 6 6zm0 0" fill="#b39ddb"/><path d="M38 33a5 5 0 1 1-10 0 5 5 0 0 1 10 0zm0 0M20 33a5 5 0 1 1-10 0 5 5 0 0 1 10 0zm0 0" fill="#b39ddb"/><path d="M24 27.5a4.501 4.501 0 0 1-9 0 4.501 4.501 0 0 1 9 0zm0 0" fill="#b39ddb"/><path d="M29.602 31.426a4.9 4.9 0 0 1-4.903 4.898 4.896 4.896 0 0 1-4.898-4.898 4.896 4.896 0 0 1 4.898-4.899 4.9 4.9 0 0 1 4.903 4.899zm0 0" fill="#b39ddb"/><path d="M12 35.2a2.8 2.8 0 0 0 2.8 2.8h17.5a2.8 2.8 0 0 0 2.802-2.8v-.7a2.8 2.8 0 0 0-2.801-2.8H14.8A2.8 2.8 0 0 0 12 34.5zm0 0" fill="#b39ddb"/></svg>