<svg xmlns="http://www.w3.org/2000/svg" width="48" height="48"><path d="M43 40c0 .555-.445 1-1 1H6c-.555 0-1-.445-1-1V8c0-.555.445-1 1-1h36c.555 0 1 .445 1 1zm0 0" fill="#bbdefb"/><path d="M16 29H9v7h7zm0 0" fill="#64b5f6"/><path d="M9 15h8v2H9zm0 0M9 22h8v2H9zm0 0M19 31h20v2H19zm0 0" fill="#1976d2"/><path d="M39 17a1 1 0 0 1-1 1H22c-.55 0-1-.45-1-1v-2c0-.55.45-1 1-1h16a1 1 0 0 1 1 1zm0 0M39 24a1 1 0 0 1-1 1H22c-.55 0-1-.45-1-1v-2c0-.55.45-1 1-1h16a1 1 0 0 1 1 1zm0 0" fill="#fff"/><path d="M11 31h3v3h-3zm0 0" fill="#fafafa"/></svg>