<svg xmlns="http://www.w3.org/2000/svg" width="48" height="48"><path d="M42 8H6c-1.105 0-2 .895-2 2v12c0 1.105.895 2 2 2h36c1.105 0 2-.895 2-2V10c0-1.105-.895-2-2-2zm0 0" fill="#43a047"/><path d="M6 10h36v12H6zm0 0" fill="#9ccc65"/><path d="M23 16a3 3 0 1 1-6.002-.002A3 3 0 0 1 23 16zm0 0M15 16a3 3 0 1 1-6.002-.002A3 3 0 0 1 15 16zm0 0M39 16a3 3 0 1 1-6.002-.002A3 3 0 0 1 39 16zm0 0M31 16a3 3 0 1 1-6.002-.002A3 3 0 0 1 31 16zm0 0" fill="#fff"/><path d="M25.11 37.813L23.058 40l-7.11-6.563L18 31.247zm0 0" fill="#4caf50"/><path d="M30.813 27.406L20.87 37.95 23.06 40 33 29.46zm0 0" fill="#4caf50"/></svg>