<svg xmlns="http://www.w3.org/2000/svg" width="48" height="48"><path d="M40.64 17.031a32.86 32.86 0 0 0-.316-1.39l-6.238 1.28c.11.349.242.735.383 1.157 0-.004-.004-.012-.004-.015.195.593.398 1.246.535 1.937l.793-.133L41 19a48.217 48.217 0 0 0-.36-1.969zm0 0M7.691 15.59a33.87 33.87 0 0 0-.328 1.441H7.36A48.217 48.217 0 0 0 7 19l5.207.867L13 20c.137-.691.34-1.344.54-1.938.155-.476.312-.914.425-1.296zm0 0M18.992 6S21 7 24 7s4.988-1 4.988-1v10h-10V6zm0 0" fill="#4a148c"/><path d="M34.465 18.063l6.176-1.032c-.946-4.582-2.227-6.617-3.184-7.57L37 9l-8-3c-.379.605 0 5-5 5s-4.621-4.395-5-5l-8 3-.457.457c-1.02 1.02-2.406 3.262-3.367 8.516.058-.325.12-.637.183-.942l6.176 1.032c.168-.5.332-.961.445-1.352L14 41h20l.02-24.29c.113.395.28.864.449 1.368 0-.004-.004-.012-.004-.015zm0 0" fill="#ab47bc"/></svg>