<svg xmlns="http://www.w3.org/2000/svg" width="48" height="48"><path d="M35 5H7C4.79 5 3 6.79 3 9v17a4 4 0 0 0 4 4h28a4 4 0 0 0 4-4V9c0-2.21-1.79-4-4-4zm0 0" fill="#b0bec5"/><path d="M4.09 6.273a3.957 3.957 0 0 0-.961 1.774L21 21 38.871 8.047a3.957 3.957 0 0 0-.96-1.774L21 18.531zm0 0" fill="#607d8b"/><path d="M41 16H13c-2.21 0-4 1.79-4 4v17a4 4 0 0 0 4 4h28a4 4 0 0 0 4-4V20c0-2.21-1.79-4-4-4zm0 0" fill="#cfd8dc"/><path d="M10.09 17.273a3.957 3.957 0 0 0-.961 1.774L27 32l17.871-12.953a3.957 3.957 0 0 0-.96-1.774L27 29.531zm0 0" fill="#78909c"/><path d="M48 40l-9-8v16zm0 0" fill="#2196f3"/><path d="M27 37h13v6H27zm0 0" fill="#2196f3"/></svg>