<svg xmlns="http://www.w3.org/2000/svg" width="48" height="48"><path d="M44 24c0 11.043-8.957 20-20 20S4 35.043 4 24 12.957 4 24 4s20 8.957 20 20zm0 0" fill="#ffc107"/><path d="M17 34V14h8.2c2.41 0 4.234.465 5.48 1.395 1.246.93 1.867 2.293 1.867 4.085 0 .98-.25 1.844-.746 2.59-.5.746-1.196 1.293-2.086 1.64 1.015.259 1.816.774 2.402 1.556.586.777.883 1.726.883 2.855 0 1.922-.61 3.379-1.828 4.367-1.219.989-2.953 1.492-5.207 1.512zm4-12h4.363c2.063-.035 3.098-.824 3.098-2.445 0-.907-.262-1.559-.785-1.957-.524-.399-1.348-.598-2.477-.598H21zm0 3v6h4.844c.96 0 3.156-.469 3.156-2.61 0-2.14-1.117-3.363-3-3.39zm0 0" fill="#fff8e1"/><path d="M20 11h3v5h-3zm0 0M25 11h3v5h-3zm0 0M20 32h3v5h-3zm0 0M25 32h3v5h-3zm0 0" fill="#fff8e1"/></svg>