<svg xmlns="http://www.w3.org/2000/svg" width="48" height="48"><g fill="#3f51b5"><path d="M10 10h4v4h-4zm0 0M10 32h4v4h-4zm0 0M32 10h4v4h-4zm0 0M20 20h4v4h-4zm0 0M24 20h4v4h-4zm0 0M24 28h4v4h-4zm0 0M38 24h4v4h-4zm0 0M8 24h4v4H8zm0 0M16 24h4v4h-4zm0 0M12 20h4v4h-4zm0 0M20 24h4v4h-4zm0 0M24 32h4v6h-4zm0 0M30 30h4v4h-4zm0 0M20 31h4v4h-4zm0 0M20 38h4v4h-4zm0 0M30 24h4v4h-4zm0 0M26 24h4v4h-4zm0 0M30 38h4v4h-4zm0 0"/><path d="M26 24h4v4h-4zm0 0M38 30h4v4h-4zm0 0M38 38h4v4h-4zm0 0M34 34h4v4h-4zm0 0M22 24h4v4h-4zm0 0M34 20h4v4h-4zm0 0M26 4v16h16V4zm12 12h-8V8h8zm0 0M4 20h16V4H4zM8 8h8v8H8zm0 0M4 42h16V26H4zm4-12h8v8H8zm0 0"/></g></svg>