<svg xmlns="http://www.w3.org/2000/svg" width="48" height="48"><path d="M42 6H6c-1.105 0-2 .895-2 2v16c0 1.105.895 2 2 2h36c1.105 0 2-.895 2-2V8c0-1.105-.895-2-2-2zm0 0" fill="#cfd8dc"/><path d="M6 8h36v16H6zm0 0" fill="#eceff1"/><path d="M24 22c-9.602 0-17.172 8.309-17.488 8.664L5.312 32l1.2 1.336C6.828 33.69 14.398 42 24 42s17.172-8.309 17.488-8.664l1.2-1.336-1.2-1.336C41.172 30.31 33.602 22 24 22zm0 0" fill="#90a4ae"/><path d="M24 24c-8.82 0-16 8-16 8s7.18 8 16 8 16-8 16-8-7.18-8-16-8zm0 0" fill="#fff"/><path d="M17.477 25.383A7.949 7.949 0 0 0 16 30a8 8 0 0 0 16 0 7.95 7.95 0 0 0-1.477-4.617C28.531 24.563 26.324 24 24 24s-4.531.563-6.523 1.383zm0 0" fill="#009688"/><path d="M27 16a3 3 0 1 1-6.002-.002A3 3 0 0 1 27 16zm-13-3a3 3 0 1 0 .002 6.002A3 3 0 0 0 14 13zm20 0a3 3 0 1 0 .002 6.002A3 3 0 0 0 34 13zm0 0" fill="#37474f"/><path d="M27 30a3 3 0 1 1-6.002-.002A3 3 0 0 1 27 30zm0 0" fill="#263238"/><path d="M24 27.5c0-.824.672-1.5 1.5-1.5s1.5.676 1.5 1.5-.672 1.5-1.5 1.5-1.5-.676-1.5-1.5" fill="#fff"/></svg>