<svg xmlns="http://www.w3.org/2000/svg" width="48" height="48"><path d="M5 38V14h38v24c0 2.2-1.8 4-4 4H9c-2.2 0-4-1.8-4-4zm0 0" fill="#cfd8dc"/><path d="M43 10v6H5v-6c0-2.2 1.8-4 4-4h30c2.2 0 4 1.8 4 4zm0 0" fill="#f44336"/><path d="M36 10a3 3 0 1 1-6.002-.002A3 3 0 0 1 36 10zm0 0M18 10a3 3 0 1 1-6.002-.002A3 3 0 0 1 18 10zm0 0" fill="#b71c1c"/><path d="M33 3c-1.102 0-2 .898-2 2v5c0 1.102.898 2 2 2 1.102 0 2-.898 2-2V5c0-1.102-.898-2-2-2zm0 0M15 3c-1.102 0-2 .898-2 2v5c0 1.102.898 2 2 2 1.102 0 2-.898 2-2V5c0-1.102-.898-2-2-2zm0 0" fill="#b0bec5"/><path d="M13 20h4v4h-4zm0 0M19 20h4v4h-4zm0 0M25 20h4v4h-4zm0 0M31 20h4v4h-4zm0 0M13 26h4v4h-4zm0 0M19 26h4v4h-4zm0 0M25 26h4v4h-4zm0 0M31 26h4v4h-4zm0 0M13 32h4v4h-4zm0 0M19 32h4v4h-4zm0 0M25 32h4v4h-4zm0 0M31 32h4v4h-4zm0 0" fill="#90a4ae"/></svg>