<svg xmlns="http://www.w3.org/2000/svg" width="48" height="48"><path d="M31 41H8c-2.2 0-4-1.8-4-4V11c0-2.2 1.8-4 4-4h32c2.2 0 4 1.8 4 4v17c0 7.2-5.8 13-13 13zm0 0" fill="#8cbcd6"/><path d="M38 16a3 3 0 1 1-6.002-.002A3 3 0 0 1 38 16zm0 0" fill="#b3ddf5"/><path d="M20 16L9 32h22zm0 0" fill="#9ac9e3"/><path d="M31 22l-8 10h16zm0 0" fill="#b3ddf5"/><path d="M47.7 29.102L44.897 26.3c-.398-.403-1.097-.403-1.597 0L42 27.6 46.398 32l1.301-1.3c.403-.4.403-1.098 0-1.598zm0 0" fill="#e57373"/><path d="M27.473 42.168l12.304-12.305 4.383 4.387-12.305 12.3zm0 0" fill="#ff9800"/><path d="M46.39 32.035l-2.195 2.195-4.383-4.386 2.192-2.192zm0 0" fill="#b0bec5"/><path d="M27.5 42.2L26 48l5.8-1.5zm0 0" fill="#ffc107"/><path d="M26.7 45l-.7 3 3-.7zm0 0" fill="#37474f"/></svg>