<svg xmlns="http://www.w3.org/2000/svg" width="48" height="48"><path d="M40 16H8v24c0 2.2 1.8 4 4 4h24c2.2 0 4-1.8 4-4zm0 0" fill="#616161"/><path d="M36 4H12C9.8 4 8 5.8 8 8v9h32V8c0-2.2-1.8-4-4-4zm0 0" fill="#424242"/><path d="M36 14H12c-.602 0-1-.398-1-1V8c0-.602.398-1 1-1h24c.602 0 1 .398 1 1v5c0 .602-.398 1-1 1zm0 0" fill="#9ccc65"/><path d="M33 10h2v2h-2zm0 0M29 10h2v2h-2zm0 0" fill="#33691e"/><path d="M36 23h-3c-.602 0-1-.398-1-1v-2c0-.602.398-1 1-1h3c.602 0 1 .398 1 1v2c0 .602-.398 1-1 1zm0 0" fill="#ff5252"/><path d="M15 23h-3c-.602 0-1-.398-1-1v-2c0-.602.398-1 1-1h3c.602 0 1 .398 1 1v2c0 .602-.398 1-1 1zm0 0M22 23h-3c-.602 0-1-.398-1-1v-2c0-.602.398-1 1-1h3c.602 0 1 .398 1 1v2c0 .602-.398 1-1 1zm0 0M29 23h-3c-.602 0-1-.398-1-1v-2c0-.602.398-1 1-1h3c.602 0 1 .398 1 1v2c0 .602-.398 1-1 1zm0 0M15 29h-3c-.602 0-1-.398-1-1v-2c0-.602.398-1 1-1h3c.602 0 1 .398 1 1v2c0 .602-.398 1-1 1zm0 0M22 29h-3c-.602 0-1-.398-1-1v-2c0-.602.398-1 1-1h3c.602 0 1 .398 1 1v2c0 .602-.398 1-1 1zm0 0M29 29h-3c-.602 0-1-.398-1-1v-2c0-.602.398-1 1-1h3c.602 0 1 .398 1 1v2c0 .602-.398 1-1 1zm0 0M15 35h-3c-.602 0-1-.398-1-1v-2c0-.602.398-1 1-1h3c.602 0 1 .398 1 1v2c0 .602-.398 1-1 1zm0 0M22 35h-3c-.602 0-1-.398-1-1v-2c0-.602.398-1 1-1h3c.602 0 1 .398 1 1v2c0 .602-.398 1-1 1zm0 0M29 35h-3c-.602 0-1-.398-1-1v-2c0-.602.398-1 1-1h3c.602 0 1 .398 1 1v2c0 .602-.398 1-1 1zm0 0M15 41h-3c-.602 0-1-.398-1-1v-2c0-.602.398-1 1-1h3c.602 0 1 .398 1 1v2c0 .602-.398 1-1 1zm0 0M22 41h-3c-.602 0-1-.398-1-1v-2c0-.602.398-1 1-1h3c.602 0 1 .398 1 1v2c0 .602-.398 1-1 1zm0 0M29 41h-3c-.602 0-1-.398-1-1v-2c0-.602.398-1 1-1h3c.602 0 1 .398 1 1v2c0 .602-.398 1-1 1zm0 0" fill="#e0e0e0"/><path d="M36 29h-3c-.602 0-1-.398-1-1v-2c0-.602.398-1 1-1h3c.602 0 1 .398 1 1v2c0 .602-.398 1-1 1zm0 0M36 35h-3c-.602 0-1-.398-1-1v-2c0-.602.398-1 1-1h3c.602 0 1 .398 1 1v2c0 .602-.398 1-1 1zm0 0M36 41h-3c-.602 0-1-.398-1-1v-2c0-.602.398-1 1-1h3c.602 0 1 .398 1 1v2c0 .602-.398 1-1 1zm0 0" fill="#bdbdbd"/></svg>