<svg xmlns="http://www.w3.org/2000/svg" width="48" height="48"><path d="M38 13.5c0 4.695-3.805 8.5-8.5 8.5a8.499 8.499 0 0 1-8.5-8.5C21 8.805 24.805 5 29.5 5S38 8.805 38 13.5zm0 0" fill="#bbdefb"/><path d="M44 21.895a7.001 7.001 0 1 1-14.002-.002A7.001 7.001 0 0 1 44 21.895zm0 0M18 22c0 3.867-3.133 7-7 7s-7-3.133-7-7 3.133-7 7-7 7 3.133 7 7zm0 0" fill="#bbdefb"/><path d="M24 14.5a6.5 6.5 0 1 1-13 0 6.5 6.5 0 0 1 13 0zm0 0" fill="#bbdefb"/><path d="M32 19.895a7.001 7.001 0 1 1-14.002-.002A7.001 7.001 0 0 1 32 19.895zm0 0" fill="#bbdefb"/><path d="M7 25c0 2.21 1.79 4 4 4h25c2.21 0 4-1.79 4-4v-1c0-2.21-1.79-4-4-4H11c-2.21 0-4 1.79-4 4zm0 0" fill="#bbdefb"/><path d="M34.95 37.148a2.9 2.9 0 0 1-4.102-4.097C31.98 31.918 37 31 37 31s-.918 5.02-2.05 6.148zm0 0M23.95 41.148a2.9 2.9 0 0 1-4.102-4.097C20.98 35.914 26 35 26 35s-.918 5.02-2.05 6.148zm0 0M13.95 37.148a2.9 2.9 0 0 1-4.102-4.097C10.98 31.918 16 31 16 31s-.918 5.02-2.05 6.148zm0 0" fill="#2196f3"/></svg>