<svg xmlns="http://www.w3.org/2000/svg" width="48" height="48"><path d="M35.89 17.477a1 1 0 0 1-1.406.152l-3.109-2.516a1 1 0 0 1-.148-1.406l1.886-2.336a1 1 0 0 1 1.407-.148l3.109 2.515a1 1 0 0 1 .148 1.407zm0 0" fill="#546e7a"/><path d="M21 9h6v4h-6zm0 0" fill="#455a64"/><path d="M37.5 28c0 7.457-6.043 13.5-13.5 13.5S10.5 35.457 10.5 28 16.543 14.5 24 14.5 37.5 20.543 37.5 28zm0 0" fill="#eee"/><path d="M21.48 28.012a2.506 2.506 0 0 0 2.543 2.508 2.57 2.57 0 0 0 2.543-2.563 2.514 2.514 0 0 0-2.554-2.508 2.557 2.557 0 0 0-2.532 2.563" fill="#263238"/><path d="M24 16.996l1.715 10.125-3.39.035zm0 0" fill="#263238"/><path d="M23.172 27.996c.004.465.383.84.851.832a.853.853 0 0 0 .844-.855.84.84 0 0 0-.847-.836.86.86 0 0 0-.848.86" fill="#00acc1"/><path d="M24 12c-8.836 0-16 7.164-16 16s7.164 16 16 16 16-7.164 16-16-7.164-16-16-16zm0 29c-7.18 0-13-5.82-13-13s5.82-13 13-13 13 5.82 13 13-5.82 13-13 13zm0 0" fill="#00acc1"/><path d="M29 9c0 .555-.445 1-1 1h-8c-.555 0-1-.445-1-1V5c0-.555.445-1 1-1h8c.555 0 1 .445 1 1zm0 0" fill="#90a4ae"/></svg>