<svg xmlns="http://www.w3.org/2000/svg" width="48" height="48"><path d="M24.5 14c-8 0-14.5 6.5-14.5 14.5S16.5 43 24.5 43 39 36.5 39 28.5 32.5 14 24.5 14zm0 0" fill="#2196f3"/><path d="M23.8 35.398c-1-.296-2-.296-2.8-1.199-.2-.3-.2-.699-.3-1-.302-.3-1.2-.5-1.5-.699H15.897c-.5-.2-.796-.8-1.199-1.3-.199-.2-.199-.5-.5-.5-.3-.2-.699.198-1 0-.199-.2-.199-.302-.199-.5 0-.5.3-1 .7-1.302.5-.296 1 .204 1.5.204.198 0 .198 0 .3.199.5.199.7.8.7 1.3v.297c0 .204.198.204.3.204.2-.801.2-1.602.3-2.5 0-1 1-2 1.802-2.301.296-.2.5.199.796 0 1-.301 3.5-1.301 3-2.602-.296-1.199-1.296-2.3-2.597-2.097-.301 0-.7.199-.801.296-.5.301-1.5 1.301-2 1.301-.8 0-.8-1.199-.7-1.8.098-.598 1.598-2.797 2.598-2.5.301.203.5.3.801.5.301.203.801.203 1.301.203.2 0 .3 0 .5-.204.2-.199.2-.199.2-.296 0-.5-.5-1-.802-1.301-.296-.301-.796-.7-1.296-.801-1.801-.2-4.5.5-5.801 1.602-.102.097-.301.296-.403.398 0 .102-.097.102-.097.2l-.102.1c-.3.302-.5.598-.699.9-.602 1-1.2 2.1-1.602 3.1-.5 1.2-.699 2.302-.796 3.5 0 .2-.102.4-.102.598v.801c0 .301.102.602.3.903.5 1 1.5 2 2.5 2.597.7.5 2 .5 2.598 1.301.5.7.301 1.5.301 2.3 0 1 .7 1.802 1 2.598.2.5.301 1.204.5 1.602 0 .2.2 1.2.2 1.3 1 .5 1.8 1 3 1.302.203 0 .8-1 .8-1.204.5-.5.801-1.199 1.301-1.5.3-.199.7-.296 1-.699.3-.398.5-1 .7-1.5.198-.3.3-1 .198-1.5-.097.102-.199-.097-.597-.3zm0 0M39 28.102v-.704c0-.199 0-.398-.102-.5a14.491 14.491 0 0 0-2.296-6.199 10.92 10.92 0 0 1-.301-.3c-.102-.2-.301-.399-.403-.7-.5-.699-1.097-1.3-1.796-1.898-.204-.102-.5 0-.801.097-.5.204-.801.801-1.2 1.204-.3.5-.703 1-1 1.5-.203.199-.3.5-.203.699 0 .199.204.199.301.199.301.2.5.2.801.3.2 0 .3.2.2.302 0 0 0 .199-.2.199-.8.8-1.602 1.5-2.5 2.3-.2.2-.3.5-.3.7 0 .199.198.199.198.3 0 .098-.199.2-.296.297-.301.204-.704.301-.801.5-.2.301 0 .801-.2 1.204-.203.796-.703 1.5-1 2.296-.3.5-.5 1-.8 1.5 0 .704-.2 1.204.199 1.602.8 1.2 2.3.5 3.5 1 .3.2.7.2.8.5.5.5.5 1.3.7 1.8.2.7.3 1.302.7 2 .198.802.5 1.598.6 2.2 1-.7 1.9-1.602 2.7-2.5l.102-.102c.097-.199.296-.398.398-.5.2-.296.398-.597.602-.796.199-.204.296-.5.5-.704.296-.398.5-.898.699-1.398v-.102c.699-1.699 1.097-3.5 1.097-5.5.102-.5.102-.597.102-.796zm0 0M24.7 20.898c.198 0 .3-.199.698-.296.5-.301 1-.801 1.5-1.204.5-.296 1-.796 1.301-1.199.5-.3.801-1 1-1.5.2-.3.7-1 .5-1.5-.199-.3-1-.5-1.3-.699-1.297-.3-2.5-.5-3.797-.5-.5 0-1.204.2-1.301.7-.2.8.5.698 1.199.8 0 0 .2 1.3.2 1.5.198.8-.302 1.3-.302 2.102 0 .5 0 1.296.301 1.597zm0 0" fill="#8bc34a"/><path d="M42 27h-2v-4c0-8.8-7-16-15.5-16S9 14.2 9 23v4H7v-4c0-9.898 7.898-18 17.5-18S42 13.102 42 23zm0 0" fill="#9c27b0"/><path d="M10 34h2V22h-2c-2.2 0-4 1.8-4 4v4c0 2.2 1.8 4 4 4M39 34h-2V22h2c2.2 0 4 1.8 4 4v4c0 2.2-1.8 4-4 4" fill="#37474f"/></svg>