<svg xmlns="http://www.w3.org/2000/svg" width="48" height="48"><path d="M42 6H6c-1.105 0-2 .895-2 2v12c0 1.105.895 2 2 2h36c1.105 0 2-.895 2-2V8c0-1.105-.895-2-2-2zm0 0" fill="#00acc1"/><path d="M6 8h36v12H6zm0 0" fill="#4dd0e1"/><path d="M23 14a3 3 0 1 1-6.002-.002A3 3 0 0 1 23 14zm0 0M15 14a3 3 0 1 1-6.002-.002A3 3 0 0 1 15 14zm0 0M39 14a3 3 0 1 1-6.002-.002A3 3 0 0 1 39 14zm0 0M31 14a3 3 0 1 1-6.002-.002A3 3 0 0 1 31 14zm0 0" fill="#fff"/><path d="M26.57 29L22 33v-8zm0 0" fill="#0097a7"/><path d="M18 35a5 5 0 1 0 10 0c0-.79-.2-1.527-.523-2.191l1.476-1.477A6.943 6.943 0 0 1 30 35c0 3.867-3.133 7-7 7s-7-3.133-7-7 3.133-7 7-7v2a5 5 0 0 0-5 5zm0 0" fill="#0097a7"/></svg>