<svg xmlns="http://www.w3.org/2000/svg" width="48" height="48"><path d="M6 6.004h31v31H6zm0 0" fill="#90caf9"/><path d="M9 9.004h31v31H9zm0 0" fill="#2196f3"/><path d="M12 12.004h31v31H12zm0 0" fill="#90caf9"/><path d="M47.68 44.86a1.106 1.106 0 0 0 0-1.555l-1.328-1.328-4.375 4.375 1.328 1.324c.43.43 1.125.43 1.554 0l2.82-2.817" fill="#e57373"/><path d="M39.785 44.16L21.473 25.852l4.375-4.375 18.316 18.312zm0 0" fill="#ff9800"/><path d="M44.164 39.785l2.188 2.192-4.38 4.375-2.183-2.192zm0 0" fill="#b0bec5"/><path d="M25.848 21.477L20 20.004l1.473 5.848zm0 0" fill="#ffc107"/><path d="M22.957 20.742L20 20.004l.742 2.957zm0 0" fill="#37474f"/></svg>